<?xml version="1.0" encoding="UTF-8"?>
<svg width="40px" height="40px" viewBox="0 0 40 40" version="1.1" xmlns="http://www.w3.org/2000/svg" xmlns:xlink="http://www.w3.org/1999/xlink">
    <!-- Generator: Sketch 52.5 (67469) - http://www.bohemiancoding.com/sketch -->
    <title>icons8-github</title>
    <desc>Created with Sketch.</desc>
    <g id="Page-1" stroke="none" stroke-width="1" fill="none" fill-rule="evenodd">
        <g id="Desktop" transform="translate(-351.000000, -1934.000000)">
            <g id="Projects" transform="translate(0.000000, 801.000000)">
                <g id="Github" transform="translate(351.000000, 1133.000000)">
                    <g id="icons8-github">
                        <path d="M20,0 C8.954,0 0,8.954 0,20 C0,28.887 5.801,36.411 13.82,39.016 L26.18,39.016 C34.199,36.411 40,28.887 40,20 C40,8.954 31.046,0 20,0 Z" id="Path" fill="#FFFAFF"></path>
                        <path d="M32.744,19.334 C32.744,17.024 31.962,15.108 30.627,13.606 C30.772,13.281 30.923,12.845 30.998,12.297 C31.17,11.047 30.967,10.297 30.795,9.563 C30.623,8.829 30.42,8.313 30.42,8.313 C30.42,8.313 29.498,8.219 28.717,8.485 C27.936,8.751 27.264,8.954 26.295,9.532 C25.842,9.802 25.386,10.098 25.025,10.338 C23.482,9.91 21.785,9.69 20,9.69 C18.199,9.69 16.487,9.911 14.933,10.342 C14.571,10.101 14.112,9.803 13.656,9.531 C12.687,8.953 12.015,8.75 11.234,8.484 C10.453,8.218 9.531,8.312 9.531,8.312 C9.531,8.312 9.328,8.828 9.156,9.562 C8.984,10.296 8.781,11.046 8.953,12.296 C9.03,12.858 9.186,13.302 9.335,13.629 C8.025,15.122 7.257,17.026 7.257,19.333 C7.257,25.316 10.489,28.047 16.378,28.768 C15.691,29.494 15.23,30.424 15.075,31.459 C14.688,31.629 14.242,31.789 13.813,31.853 C12.709,32.02 11.542,31.853 10.98,31.52 C10.418,31.187 9.751,30.437 9.251,29.707 C8.829,29.091 8.22,28.376 7.668,28.124 C6.939,27.791 6.23,27.666 5.835,27.728 C5.439,27.791 5.252,28.082 5.335,28.291 C5.418,28.499 5.814,28.812 6.231,29.041 C6.648,29.27 7.294,29.895 7.669,30.499 C8.087,31.173 8.169,31.562 8.523,32.332 C8.772,32.874 9.624,33.551 10.231,33.915 C10.752,34.228 11.793,34.406 12.919,34.457 C13.308,34.475 14.227,34.361 15.002,34.251 L15.002,38.001 C15.002,38.64 14.417,39.126 13.811,39.014 C15.756,39.668 17.833,40 20,40 C22.166,40 24.243,39.668 26.19,39.016 C25.585,39.127 25,38.641 25,38.002 L25,32.198 C25,30.869 24.473,29.668 23.627,28.773 C29.473,28.071 32.744,25.405 32.744,19.334 Z M7.239,28.727 C7.085,28.648 7.002,28.502 7.054,28.399 C7.106,28.296 7.274,28.277 7.428,28.356 C7.582,28.435 7.665,28.581 7.613,28.684 C7.561,28.787 7.393,28.806 7.239,28.727 Z M8.451,29.482 C8.37,29.57 8.196,29.542 8.062,29.42 C7.928,29.298 7.885,29.127 7.966,29.039 C8.047,28.951 8.221,28.979 8.355,29.101 C8.489,29.223 8.532,29.394 8.451,29.482 Z M9.205,30.732 C9.103,30.804 8.93,30.737 8.819,30.582 C8.708,30.427 8.701,30.242 8.803,30.17 C8.905,30.098 9.078,30.165 9.189,30.32 C9.299,30.475 9.307,30.66 9.205,30.732 Z M10.288,31.673 C10.219,31.785 10.023,31.79 9.851,31.685 C9.679,31.58 9.595,31.404 9.664,31.292 C9.733,31.18 9.929,31.175 10.101,31.28 C10.273,31.385 10.357,31.561 10.288,31.673 Z M11.312,32.594 C11.099,32.568 10.941,32.435 10.959,32.297 C10.976,32.159 11.163,32.069 11.375,32.095 C11.588,32.121 11.746,32.254 11.728,32.392 C11.711,32.529 11.525,32.62 11.312,32.594 Z M12.963,32.833 C12.736,32.82 12.559,32.69 12.568,32.544 C12.577,32.398 12.768,32.289 12.995,32.302 C13.222,32.315 13.399,32.445 13.39,32.591 C13.381,32.738 13.19,32.846 12.963,32.833 Z M14.521,32.677 C14.279,32.677 14.083,32.551 14.083,32.396 C14.083,32.241 14.279,32.115 14.521,32.115 C14.763,32.115 14.959,32.241 14.959,32.396 C14.959,32.551 14.762,32.677 14.521,32.677 Z" id="Shape" fill="#050401" fill-rule="nonzero"></path>
                    </g>
                </g>
            </g>
        </g>
    </g>
</svg>