<?xml version="1.0" encoding="UTF-8"?>
<svg width="42px" height="46px" viewBox="0 0 42 46" version="1.1" xmlns="http://www.w3.org/2000/svg" xmlns:xlink="http://www.w3.org/1999/xlink">
    <!-- Generator: Sketch 52.5 (67469) - http://www.bohemiancoding.com/sketch -->
    <title>icons8-c-sharp-logo</title>
    <desc>Created with Sketch.</desc>
    <g id="Page-1" stroke="none" stroke-width="1" fill="none" fill-rule="evenodd">
        <g id="Desktop" transform="translate(-78.000000, -3201.000000)" fill="#FFFAFF" fill-rule="nonzero">
            <g id="Resume" transform="translate(49.000000, 2070.000000)">
                <g id="Skill" transform="translate(0.000000, 903.000000)">
                    <g id="Group-6" transform="translate(0.000000, 200.000000)">
                        <g id="icons8-c-sharp-logo" transform="translate(29.000000, 28.000000)">
                            <path d="M21,0 C20.285156,0 19.570313,0.179688 18.933594,0.539063 L2.089844,10.003906 C0.800781,10.726563 0,12.082031 0,13.535156 L0,32.464844 C0,33.917969 0.800781,35.273438 2.089844,35.996094 L18.933594,45.460938 C19.570313,45.820313 20.285156,46 21,46 C21.714844,46 22.429688,45.820313 23.066406,45.460938 L39.910156,36 C41.199219,35.273438 42,33.917969 42,32.464844 L42,13.535156 C42,12.082031 41.199219,10.726563 39.910156,10.003906 L23.066406,0.539063 C22.429688,0.179688 21.714844,0 21,0 Z M21,11 C24.78125,11 28.277344,12.753906 30.542969,15.738281 L26.160156,18.277344 C24.84375,16.835938 22.972656,16 21,16 C17.140625,16 14,19.140625 14,23 C14,26.859375 17.140625,30 21,30 C22.972656,30 24.84375,29.164063 26.160156,27.722656 L30.542969,30.261719 C28.277344,33.246094 24.78125,35 21,35 C14.382813,35 9,29.617188 9,23 C9,16.382813 14.382813,11 21,11 Z M31,18 L33,18 L33,20 L35,20 L35,18 L37,18 L37,20 L39,20 L39,22 L37,22 L37,24 L39,24 L39,26 L37,26 L37,28 L35,28 L35,26 L33,26 L33,28 L31,28 L31,26 L29,26 L29,24 L31,24 L31,22 L29,22 L29,20 L31,20 L31,18 Z M33,22 L33,24 L35,24 L35,22 L33,22 Z" id="Shape"></path>
                        </g>
                    </g>
                </g>
            </g>
        </g>
    </g>
</svg>