<?xml version="1.0" encoding="UTF-8"?>
<svg width="48px" height="48px" viewBox="0 0 48 48" version="1.1" xmlns="http://www.w3.org/2000/svg" xmlns:xlink="http://www.w3.org/1999/xlink">
    <!-- Generator: Sketch 52.5 (67469) - http://www.bohemiancoding.com/sketch -->
    <title>Path</title>
    <desc>Created with Sketch.</desc>
    <g id="Page-1" stroke="none" stroke-width="1" fill="none" fill-rule="evenodd">
        <g id="Desktop" transform="translate(-407.000000, -3318.000000)" fill="#FFFAFF">
            <g id="Resume" transform="translate(49.000000, 2070.000000)">
                <g id="Skill" transform="translate(0.000000, 903.000000)">
                    <g id="Group-9" transform="translate(332.000000, 319.000000)">
                        <path d="M56,58 L56,54 C56.9,53.554 59.474,50.49 59.744,48.096 C60.452,48.042 61.564,47.392 61.892,44.826 C62.068,43.448 61.368,42.674 60.944,42.43 C60.944,42.43 62,40.424 62,38.002 C62,33.146 60.094,29.002 56,29.002 C56,29.002 54.578,26.002 50,26.002 C41.516,26.002 38,31.444 38,38.002 C38,40.21 39.056,42.43 39.056,42.43 C38.632,42.674 37.932,43.45 38.108,44.826 C38.436,47.392 39.548,48.042 40.256,48.096 C40.526,50.49 43.1,53.554 44,54 L44,58 C42,64 26,60 26,74 L74,74 C74,60 58,64 56,58 Z" id="Path"></path>
                    </g>
                </g>
            </g>
        </g>
    </g>
</svg>