<?xml version="1.0" encoding="UTF-8"?>
<svg width="60px" height="53px" viewBox="0 0 60 53" version="1.1" xmlns="http://www.w3.org/2000/svg" xmlns:xlink="http://www.w3.org/1999/xlink">
    <!-- Generator: Sketch 52.5 (67469) - http://www.bohemiancoding.com/sketch -->
    <title>react-brands</title>
    <desc>Created with Sketch.</desc>
    <g id="Page-1" stroke="none" stroke-width="1" fill="none" fill-rule="evenodd">
        <g id="Desktop" transform="translate(-68.000000, -3073.000000)" fill="#FFFAFF" fill-rule="nonzero">
            <g id="Resume" transform="translate(49.000000, 2070.000000)">
                <g id="Skill" transform="translate(0.000000, 903.000000)">
                    <g id="React" transform="translate(0.000000, 81.000000)">
                        <g id="react-brands" transform="translate(19.000000, 19.000000)">
                            <path d="M49.0078125,17.0141596 C48.375,16.8032221 47.7421875,16.6040033 47.109375,16.4165033 C47.2148438,15.9829096 47.3085938,15.5493158 47.4023438,15.1157221 C48.84375,8.13134706 47.8945312,2.51806581 44.6953125,0.666503305 C41.6132812,-1.10302794 36.5859375,0.736815805 31.5,5.16650331 C30.9960937,5.60009706 30.5039062,6.05712831 30.0351562,6.51415956 C29.71875,6.20947206 29.390625,5.90478456 29.0625,5.61181581 C23.7304687,0.877440805 18.3867187,-1.11474669 15.1875,0.748534555 C12.1171875,2.52978456 11.203125,7.81494081 12.4921875,14.4243158 C12.6210937,15.0805658 12.7617187,15.7250971 12.9257812,16.3813471 C12.1757812,16.5922846 11.4375,16.8266596 10.7460937,17.0727533 C4.48828125,19.2407221 0,22.6625971 0,26.2016596 C0,29.8579096 4.78125,33.5258783 11.2851562,35.7524408 C11.8125,35.9282221 12.3398438,36.1040033 12.8789062,36.2563471 C12.703125,36.9594721 12.5507812,37.6508783 12.4101562,38.3657221 C11.1796875,44.8696283 12.140625,50.0258783 15.2109375,51.7954096 C18.375,53.6235346 23.6953125,51.7485346 28.875,47.2133783 C29.2851562,46.8500971 29.6953125,46.4750971 30.1054688,46.0766596 C30.6210937,46.5805658 31.1601562,47.0610346 31.6992188,47.5297846 C36.7148438,51.8422846 41.671875,53.5883783 44.7304688,51.8188471 C47.8945312,49.9907221 48.9257812,44.4477533 47.5898438,37.6977533 C47.484375,37.1821283 47.3671875,36.6547846 47.2382812,36.1157221 C47.6132812,36.0102533 47.9765625,35.8930658 48.3398437,35.7758783 C55.1015625,33.5375971 60,29.9165033 60,26.2016596 C60,22.6508783 55.3828125,19.2055658 49.0078125,17.0141596 Z M33.1523437,7.06494081 C37.5117187,3.26806581 41.578125,1.77978456 43.4296875,2.84619081 C45.4101562,3.98290956 46.171875,8.57665956 44.9296875,14.6118158 C44.8476562,15.0102533 44.765625,15.3969721 44.6601562,15.7836908 C42.0585937,15.1977533 39.421875,14.7758783 36.7734375,14.5415033 C35.25,12.3618158 33.5859375,10.2758783 31.78125,8.31884706 C32.2382812,7.88525331 32.6835937,7.47509706 33.1523437,7.06494081 Z M19.59375,32.2836908 C20.1914062,33.3032221 20.8007812,34.3227533 21.4453125,35.3188471 C19.6171875,35.1196283 17.8007812,34.8266596 16.0078125,34.4399408 C16.5234375,32.7524408 17.1679688,31.0063471 17.9179688,29.2250971 C18.4570312,30.2563471 19.0078125,31.2758783 19.59375,32.2836908 Z M16.0429688,18.1860346 C17.7304688,17.8110346 19.5234375,17.5063471 21.3867188,17.2719721 C20.765625,18.2446283 20.15625,19.2407221 19.5820312,20.2485346 C19.0078125,21.2446283 18.4453125,22.2641596 17.9179688,23.2954096 C17.1796875,21.5493158 16.5585938,19.8383783 16.0429688,18.1860346 Z M19.2539062,26.2602533 C20.0273438,24.6430658 20.8710938,23.0610346 21.7617188,21.5024408 C22.6523438,19.9438471 23.6132813,18.4321283 24.6210938,16.9438471 C26.3789062,16.8149408 28.171875,16.7446283 30,16.7446283 C31.828125,16.7446283 33.6328125,16.8149408 35.3789062,16.9438471 C36.375,18.4204096 37.3242188,19.9321283 38.2265625,21.4790033 C39.1289062,23.0258783 39.9726562,24.6079096 40.7695312,26.2133783 C39.984375,27.8305658 39.140625,29.4243158 38.2382812,30.9946283 C37.3476562,32.5532221 36.3984375,34.0649408 35.4023438,35.5649408 C33.65625,35.6938471 31.8398438,35.7524408 30,35.7524408 C28.1601562,35.7524408 26.3789062,35.6938471 24.65625,35.5883783 C23.6367188,34.1000971 22.6757812,32.5766596 21.7734375,31.0180658 C20.8710938,29.4594721 20.0390625,27.8774408 19.2539062,26.2602533 Z M40.4179688,32.2602533 C41.015625,31.2290033 41.578125,30.1860346 42.1289062,29.1313471 C42.8789062,30.8305658 43.5351562,32.5532221 44.109375,34.3227533 C42.2929688,34.7329096 40.453125,35.0493158 38.6015625,35.2602533 C39.234375,34.2758783 39.8320312,33.2680658 40.4179688,32.2602533 Z M42.1054687,23.2954096 C41.5546875,22.2641596 40.9921875,21.2329096 40.40625,20.2250971 C39.8320312,19.2290033 39.234375,18.2446283 38.6132812,17.2719721 C40.5,17.5063471 42.3046875,17.8227533 43.9921875,18.2094721 C43.453125,19.9438471 42.8203125,21.6313471 42.1054687,23.2954096 Z M30.0234375,10.1118158 C31.2539062,11.4477533 32.4140625,12.8540033 33.4921875,14.3071283 C31.171875,14.2016596 28.8398438,14.2016596 26.5195312,14.3071283 C27.6679688,12.7954096 28.8515625,11.3891596 30.0234375,10.1118158 Z M16.4296875,2.92822206 C18.3984375,1.77978456 22.7695312,3.42040956 27.375,7.49853456 C27.6679688,7.75634706 27.9609375,8.03759706 28.265625,8.31884706 C26.4492188,10.2758783 24.7734375,12.3618158 23.2382812,14.5415033 C20.5898438,14.7758783 17.9648438,15.1860346 15.3632812,15.7602533 C15.2109375,15.1625971 15.0820312,14.5532221 14.953125,13.9438471 C13.8515625,8.27197206 14.578125,3.99462831 16.4296875,2.92822206 Z M13.5585937,33.8188471 C13.0664062,33.6782221 12.5859375,33.5258783 12.1054687,33.3618158 C9.609375,32.5766596 6.7734375,31.3344721 4.72265625,29.7055658 C3.5390625,28.8852533 2.7421875,27.6196283 2.51953125,26.2016596 C2.51953125,24.0571283 6.22265625,21.3149408 11.5664062,19.4516596 C12.234375,19.2172846 12.9140625,19.0063471 13.59375,18.8071283 C14.390625,21.3500971 15.3515625,23.8461908 16.4648438,26.2602533 C15.3398438,28.7094721 14.3671875,31.2407221 13.5585938,33.8188471 Z M27.2226562,45.3032221 C25.2890625,47.0727533 23.0507812,48.4790033 20.6132812,49.4399408 C19.3125,50.0610346 17.8125,50.1196283 16.4765625,49.5922846 C14.6132812,48.5141596 13.8398437,44.3774408 14.8945312,38.8110346 C15.0234375,38.1547846 15.1640625,37.4985346 15.328125,36.8540033 C17.953125,37.4165033 20.6015625,37.8032221 23.2851562,38.0024408 C24.8320312,40.1938471 26.53125,42.2915033 28.3476562,44.2602533 C27.9726562,44.6235346 27.5976562,44.9750971 27.2226562,45.3032221 Z M30.09375,42.4555658 C28.8984375,41.1665033 27.703125,39.7368158 26.5429687,38.2016596 C27.6679687,38.2485346 28.828125,38.2719721 30,38.2719721 C31.2070312,38.2719721 32.390625,38.2485346 33.5625,38.1899408 C32.484375,39.6782221 31.3242187,41.0961908 30.09375,42.4555658 Z M45.4101562,45.9711908 C45.3046875,47.4008783 44.6015625,48.7368158 43.4765625,49.6391596 C41.6132812,50.7172846 37.640625,49.3110346 33.3515625,45.6313471 C32.859375,45.2094721 32.3671875,44.7524408 31.8632812,44.2836908 C33.65625,42.3032221 35.3085937,40.2055658 36.8085937,38.0024408 C39.4921875,37.7797846 42.1640625,37.3696283 44.8007812,36.7719721 C44.9179687,37.2524408 45.0234375,37.7329096 45.1171875,38.2016596 C45.6914062,40.7329096 45.7851562,43.3696283 45.4101562,45.9711908 Z M47.5429687,33.3735346 C47.2148437,33.4790033 46.8867187,33.5844721 46.546875,33.6782221 C45.7265625,31.1235346 44.71875,28.6274408 43.5585937,26.2016596 C44.6835937,23.8110346 45.6328125,21.3500971 46.4296875,18.8305658 C47.0390625,19.0063471 47.625,19.1938471 48.1875,19.3813471 C53.6484375,21.2563471 57.4804687,24.0454096 57.4804687,26.1782221 C57.4804687,28.4750971 53.390625,31.4399408 47.5429687,33.3735346 Z M30,31.6157221 C32.9648437,31.6157221 35.3671875,29.2133783 35.3671875,26.2485346 C35.3671875,23.2836908 32.9648437,20.8813471 30,20.8813471 C27.0351562,20.8813471 24.6328125,23.2836908 24.6328125,26.2485346 C24.6328125,29.2133783 27.0351562,31.6157221 30,31.6157221 Z" id="Shape"></path>
                        </g>
                    </g>
                </g>
            </g>
        </g>
    </g>
</svg>