<?xml version="1.0" encoding="UTF-8"?>
<svg width="44px" height="44px" viewBox="0 0 44 44" version="1.1" xmlns="http://www.w3.org/2000/svg" xmlns:xlink="http://www.w3.org/1999/xlink">
    <!-- Generator: Sketch 52.5 (67469) - http://www.bohemiancoding.com/sketch -->
    <title>icons8-javascript</title>
    <desc>Created with Sketch.</desc>
    <g id="Page-1" stroke="none" stroke-width="1" fill="none" fill-rule="evenodd">
        <g id="Desktop" transform="translate(-741.000000, -3082.000000)" fill="#FFFAFF" fill-rule="nonzero">
            <g id="Resume" transform="translate(49.000000, 2070.000000)">
                <g id="Skill" transform="translate(0.000000, 903.000000)">
                    <g id="Group-7" transform="translate(664.000000, 81.000000)">
                        <g id="icons8-javascript" transform="translate(28.000000, 28.000000)">
                            <path d="M40,0 L4,0 C1.79,0 0,1.79 0,4 L0,40 C0,42.21 1.79,44 4,44 L40,44 C42.21,44 44,42.21 44,40 L44,4 C44,1.79 42.21,0 40,0 Z M22,32.76 C22,36.314 19.82,38.306 16.2,38.306 C12.624,38.306 10.346,36.216 10.346,32.836 L14.22,32.836 C14.23,34.09 14.978,34.882 16.134,34.882 C17.322,34.882 17.96,34.134 17.96,32.726 L17.96,21.996 L22,21.996 L22,32.76 Z M32.962,38.306 C28.944,38.306 26.416,36.414 26.348,33.354 L30.2,33.354 C30.298,34.51 31.452,35.246 33.126,35.246 C34.634,35.246 35.67,34.52 35.67,33.474 C35.67,32.594 34.976,32.12 33.16,31.758 L31.07,31.34 C28.164,30.79 26.668,29.206 26.668,26.708 C26.668,23.604 29.156,21.568 32.984,21.568 C36.704,21.568 39.278,23.582 39.344,26.52 L35.614,26.52 C35.526,25.398 34.458,24.616 33.036,24.616 C31.618,24.616 30.684,25.288 30.684,26.344 C30.684,27.214 31.388,27.72 33.06,28.05 L35.104,28.446 C38.242,29.052 39.65,30.47 39.65,32.99 C39.652,36.304 37.122,38.306 32.962,38.306 Z" id="Shape"></path>
                        </g>
                    </g>
                </g>
            </g>
        </g>
    </g>
</svg>