<?xml version="1.0" encoding="UTF-8"?>
<svg width="63px" height="63px" viewBox="0 0 63 63" version="1.1" xmlns="http://www.w3.org/2000/svg" xmlns:xlink="http://www.w3.org/1999/xlink">
    <!-- Generator: Sketch 52.5 (67469) - http://www.bohemiancoding.com/sketch -->
    <title>icons8-ionic</title>
    <desc>Created with Sketch.</desc>
    <g id="Page-1" stroke="none" stroke-width="1" fill="none" fill-rule="evenodd">
        <g id="Desktop" transform="translate(-65.000000, -3311.000000)" fill="#FFFAFF" fill-rule="nonzero">
            <g id="Resume" transform="translate(49.000000, 2070.000000)">
                <g id="Skill" transform="translate(0.000000, 903.000000)">
                    <g id="Group-8" transform="translate(0.000000, 319.000000)">
                        <g id="icons8-ionic" transform="translate(16.000000, 19.000000)">
                            <path d="M31.5,0 C14.1311739,0 0,14.1298043 0,31.5 C0,48.8701957 14.1311739,63 31.5,63 C48.8688261,63 63,48.8701957 63,31.5 C63,26.8092391 61.9612916,22.3573181 60.1137481,18.3527094 C58.8469003,20.4221225 56.8759248,22.0141982 54.52849,22.777046 C55.5611422,25.4942634 56.1521739,28.4253261 56.1521739,31.5 C56.1521739,45.0929348 45.0929348,56.1521739 31.5,56.1521739 C17.9070652,56.1521739 6.84782609,45.0929348 6.84782609,31.5 C6.84782609,17.9070652 17.9070652,6.84782609 31.5,6.84782609 C35.1978261,6.84782609 38.6939618,7.68818268 41.8439618,9.1536176 C42.7684183,6.8801392 44.4842274,5.01506967 46.6481405,3.89202619 C42.1504883,1.41311315 36.9878478,0 31.5,0 Z M51.3586957,5.47826087 C47.1985507,5.47826087 43.826087,8.85072466 43.826087,13.0108696 C43.826087,17.1710145 47.1985507,20.5434783 51.3586957,20.5434783 C55.5188406,20.5434783 58.8913043,17.1710145 58.8913043,13.0108696 C58.8913043,8.85072466 55.5188406,5.47826087 51.3586957,5.47826087 Z M31.5,17.8043478 C23.9361002,17.8043478 17.8043478,23.9361002 17.8043478,31.5 C17.8043478,39.0638998 23.9361002,45.1956522 31.5,45.1956522 C39.0638998,45.1956522 45.1956522,39.0638998 45.1956522,31.5 C45.1956522,23.9361002 39.0638998,17.8043478 31.5,17.8043478 Z" id="Shape"></path>
                        </g>
                    </g>
                </g>
            </g>
        </g>
    </g>
</svg>