<?xml version="1.0" encoding="UTF-8"?>
<svg width="80px" height="51px" viewBox="0 0 80 51" version="1.1" xmlns="http://www.w3.org/2000/svg" xmlns:xlink="http://www.w3.org/1999/xlink">
    <!-- Generator: Sketch 52.5 (67469) - http://www.bohemiancoding.com/sketch -->
    <title>icons8-nodejs</title>
    <desc>Created with Sketch.</desc>
    <g id="Page-1" stroke="none" stroke-width="1" fill="none" fill-rule="evenodd">
        <g id="Desktop" transform="translate(-731.000000, -3196.000000)" fill="#FFFAFF" fill-rule="nonzero">
            <g id="Resume" transform="translate(49.000000, 2070.000000)">
                <g id="Skill" transform="translate(0.000000, 903.000000)">
                    <g id="Group-3" transform="translate(664.000000, 200.000000)">
                        <g id="icons8-nodejs" transform="translate(18.000000, 23.000000)">
                            <path d="M54.9697574,0 C54.5645961,0 54.1935484,0.325994914 54.1935484,0.779553235 L54.1935484,15.0241194 L50.9778219,13.1410411 C50.7765316,13.0218227 50.5496774,12.9638709 50.3225806,12.9638709 C50.0954839,12.9638709 49.8686297,13.0218201 49.6673394,13.1410411 L41.9405239,17.6665009 C41.5379432,17.8997595 41.2903226,18.3314097 41.2903226,18.795335 L41.2903226,27.856378 C41.2903226,28.3228952 41.5379432,28.7519536 41.9405239,28.9852121 L49.6673394,33.5106719 C49.8686297,33.6298904 50.0954839,33.6878422 50.3225806,33.6878422 C50.5496774,33.6878422 50.7765316,33.629893 50.9778219,33.5106719 L58.7046374,28.9852121 C59.1072181,28.7519536 59.3548387,28.3203034 59.3548387,27.856378 L59.3548387,23.3258565 L59.3548387,18.795335 L59.3548387,3.18908208 C59.3548387,2.72774847 59.1095561,2.30363075 58.7147174,2.07037218 L55.3528232,0.106302667 C55.2263716,0.0337333354 55.0987897,0 54.9697574,0 Z M29.6774194,12.9638709 C29.4509677,12.9638709 29.2247587,13.0231186 29.0221781,13.1410411 L21.2953628,17.6665009 C20.8927822,17.8997595 20.6451613,18.3314097 20.6451613,18.795335 L20.6451613,27.856378 C20.6451613,28.3228952 20.8927822,28.7519536 21.2953628,28.9852121 L29.0221781,33.5106719 C29.4273394,33.7465222 29.9274994,33.7465222 30.3326606,33.5106719 L38.0594761,28.9852121 C38.4620568,28.7519536 38.7096774,28.3203034 38.7096774,27.856378 L38.7096774,18.795335 C38.7096774,18.3288179 38.4620568,17.8997595 38.0594761,17.6665009 L30.3326606,13.1410411 C30.13008,13.023116 29.903871,12.9638709 29.6774194,12.9638709 Z M70.9677419,12.9638709 C70.7406452,12.9638709 70.513791,13.0218201 70.3125006,13.1410411 L62.5856852,17.6665009 C62.1831045,17.8997595 61.9354839,18.3314097 61.9354839,18.795335 L61.9354839,27.856378 C61.9354839,28.3228952 62.1831045,28.7519536 62.5856852,28.9852121 L70.0806452,33.5359805 C70.4832258,33.7821978 70.9884284,33.784546 71.3961703,33.5461039 L75.0806452,31.3947394 C75.4625806,31.1744396 75.4651613,30.6179391 75.0806452,30.3924559 L67.0967742,25.669579 L67.0967742,21.0175686 L70.9677419,18.7548387 L74.8387097,21.0175686 L74.8387097,24.2572709 C74.8387097,24.6900952 75.2009677,24.7567527 75.4435484,24.611614 C76.4190323,24.0362429 79.3598787,22.323573 79.3598787,22.323573 C79.7547174,22.0929062 80,21.6661985 80,21.2048649 L80,18.795335 C80,18.3288179 79.7523794,17.8997595 79.3497987,17.6665009 L71.6229832,13.1410411 C71.4191123,13.0218227 71.1948387,12.9638709 70.9677419,12.9638709 Z M9.03225806,12.9689326 C8.80516129,12.9689326 8.57830632,13.0268844 8.37701626,13.1461054 L0.6502016,17.6665009 C0.247620968,17.9023513 0,18.3338796 0,18.8003967 L0,30.3671473 C0,30.9321514 0.608588697,31.2824047 1.09374999,30.9999026 L4.52116929,28.9953355 C4.916008,28.762077 5.16129032,28.3379585 5.16129032,27.8766249 L5.16129032,21.0276921 L9.03225806,18.7599005 L12.9032258,21.0276921 L12.9032258,27.8766249 C12.9032258,28.3379585 13.1485081,28.762077 13.5433468,28.9953355 L16.9707662,30.9999026 C17.4559275,31.2849964 18.0645161,30.9321514 18.0645161,30.3671473 L18.0645161,18.8003967 C18.0645161,18.3338796 17.8168952,17.9023513 17.4143146,17.6665009 L9.68749987,13.1461054 C9.48620981,13.0268844 9.25935484,12.9689326 9.03225806,12.9689326 Z M50.3225806,18.7548387 L54.1935484,21.0226303 L54.1935484,23.3258565 L54.1935484,25.6290827 L50.3225806,27.8968743 L46.4516129,25.6290827 L46.4516129,21.0226303 L50.3225806,18.7548387 Z M70.9677419,20.7442181 L68.75504,22.040099 L68.75504,24.6267992 L70.9677419,25.9176184 L73.1804439,24.6267992 L73.1804439,22.040099 L70.9677419,20.7442181 Z M39.7580645,31.0960803 C39.4925806,31.0960803 39.2241935,31.1613201 38.9919355,31.2935 L31.733871,35.505113 C31.2564516,35.7694727 30.9677419,36.2896885 30.9677419,36.8313668 L30.9677419,45.2444667 C30.9677419,45.7861449 31.2693548,46.2959937 31.733871,46.5707205 L33.6441523,47.66412 C34.5602813,48.1176783 34.8970168,48.1197025 35.3125006,48.1197025 C36.6802426,48.1197025 37.4596774,47.2982358 37.4596774,45.8468492 L37.4596774,37.5349886 C37.4596774,37.4079923 37.3615329,37.3173221 37.2479845,37.3173221 L36.3306452,37.3173221 C36.2041935,37.3173221 36.1139123,37.4209511 36.1139123,37.5349886 L36.1139123,45.8468492 C36.1139123,46.4766473 35.451249,47.1225221 34.3699587,46.5808439 L32.3840723,45.431763 C32.3195561,45.3928865 32.2731845,45.3145661 32.2731845,45.239405 L32.2731845,36.8263025 C32.2731845,36.7511414 32.3092335,36.6626975 32.3840723,36.6238211 L39.6421368,32.4223341 C39.7195561,32.3834577 39.8070168,32.3834577 39.8689523,32.4223341 L47.1320568,36.6238211 C47.2068955,36.6626975 47.2429445,36.7381826 47.2429445,36.8263025 L47.2429445,45.239405 C47.2429445,45.3275249 47.1939923,45.40301 47.1320568,45.4418864 L39.8689523,49.6585611 C39.8044361,49.6974375 39.7040723,49.6974375 39.6421368,49.6585611 L37.7872981,48.5499764 C37.7382658,48.5240588 37.65992,48.5088711 37.6108877,48.5347887 C37.0973394,48.8380274 36.9945574,48.8777125 36.5171381,49.0409935 C36.3906865,49.0798699 36.2187897,49.1577446 36.5826606,49.359902 L38.9919355,50.7975186 C39.2319355,50.9245149 39.4948387,51 39.7580645,51 C40.0341935,51 40.3025006,50.9247586 40.5141135,50.7873952 L47.7721781,46.5707205 C48.2495974,46.3063608 48.5383071,45.7861449 48.5383071,45.2444667 L48.5383071,36.8313668 C48.5383071,36.2896885 48.2366942,35.7824315 47.7721781,35.505113 L40.5141135,31.2935 C40.2883071,31.1613201 40.0235484,31.0960803 39.7580645,31.0960803 Z M51.0786297,34.9786614 C50.3379845,34.9786614 49.6874994,35.5801108 49.6874994,36.3757817 C49.6874994,37.1455349 50.3121781,37.7779663 51.0786297,37.7779663 C51.8450813,37.7779663 52.4697574,37.1455349 52.4697574,36.3757817 C52.4697574,35.5801108 51.8321781,34.9657026 51.0786297,34.9786614 Z M51.0635071,35.2013896 C51.718991,35.2013896 52.2479845,35.7200659 52.2479845,36.3757817 C52.2479845,37.0185386 51.7164103,37.5498109 51.0635071,37.5653615 C50.4209265,37.5653615 49.8991948,37.0314974 49.8991948,36.3757817 C49.8991948,35.7200659 50.4235071,35.2013896 51.0635071,35.2013896 Z M50.5544361,35.5810438 L50.5544361,37.155337 L50.8518142,37.155337 L50.8518142,36.5276434 L51.1290323,36.5276434 C51.2425806,36.5276434 51.2695561,36.5761974 51.2953626,36.6643173 C51.2953626,36.6772762 51.3429445,37.0852376 51.3558477,37.1603987 L51.6784284,37.1603987 C51.6422994,37.0852376 51.6157265,36.8698363 51.6028232,36.7402482 C51.5666942,36.5380908 51.5549187,36.3988639 51.3407252,36.3859051 C51.4542735,36.3470313 51.6431458,36.2864074 51.6431458,35.99613 C51.6431458,35.5788564 51.2821368,35.5810438 51.0937497,35.5810438 L50.5544361,35.5810438 Z M50.8518142,35.8341449 L51.1038297,35.8341449 C51.181249,35.8341449 51.3306452,35.8316335 51.3306452,36.0467497 C51.3306452,36.1348696 51.2925806,36.277134 51.0887097,36.2745423 L50.8518142,36.2745423 L50.8518142,35.8341449 Z M41.7036284,37.1199024 C39.6313703,37.1199024 38.4022168,38.0069329 38.4022168,39.4686866 C38.4022168,41.0703954 39.6334271,41.4988862 41.6179432,41.7010436 C43.9921368,41.9394857 44.1784284,42.282368 44.1784284,42.7488852 C44.1784284,43.5678819 43.5238297,43.9080895 41.9909265,43.9080895 C40.0683458,43.9080895 39.6454039,43.4294248 39.506049,42.4704729 C39.4931458,42.3693942 39.4028619,42.2933001 39.2893135,42.2933001 L38.3467742,42.2933001 C38.2332258,42.2933001 38.1350813,42.3839729 38.1350813,42.5109692 C38.1350813,43.7342808 38.7990323,45.1989087 41.9758065,45.1989087 C44.306129,45.196317 45.6250013,44.2896046 45.6250013,42.6982629 C45.6250013,41.1224717 44.5685084,40.7033371 42.3336697,40.400101 C40.0730245,40.0968649 39.8487897,39.9443138 39.8487897,39.4130026 C39.8487897,38.9724031 40.033951,38.3955339 41.7036284,38.3955339 C43.1978219,38.3955339 43.7547587,38.7237157 43.9818555,39.7319111 C44.0076619,39.8329898 44.0777832,39.8938962 44.1784284,39.8938962 L45.1209677,39.8938962 C45.1829032,39.8938962 45.236049,39.8694378 45.2721781,39.8331531 C45.3108877,39.7839096 45.3354839,39.7333703 45.3225806,39.671168 C45.1729032,37.929504 44.0287897,37.1199024 41.7036284,37.1199024 Z" id="Shape"></path>
                        </g>
                    </g>
                </g>
            </g>
        </g>
    </g>
</svg>