<?xml version="1.0" encoding="UTF-8"?>
<svg width="65px" height="65px" viewBox="0 0 65 65" version="1.1" xmlns="http://www.w3.org/2000/svg" xmlns:xlink="http://www.w3.org/1999/xlink">
    <!-- Generator: Sketch 52.5 (67469) - http://www.bohemiancoding.com/sketch -->
    <title>icons8-instagram</title>
    <desc>Created with Sketch.</desc>
    <g id="Page-1" stroke="none" stroke-width="1" fill="none" fill-rule="evenodd">
        <g id="Desktop" transform="translate(-277.000000, -4011.000000)" fill="#FFFAFF" fill-rule="nonzero">
            <g id="Footer" transform="translate(0.000000, 3713.000000)">
                <g id="icons8-instagram" transform="translate(277.000000, 298.000000)">
                    <path d="M19.2045455,0 C8.6125,0 0,8.6125 0,19.2045455 L0,45.7954545 C0,56.3875 8.6125,65 19.2045455,65 L45.7954545,65 C56.3875,65 65,56.3875 65,45.7954545 L65,19.2045455 C65,8.6125 56.3875,0 45.7954545,0 L19.2045455,0 Z M50.2272727,11.8181818 C51.8522727,11.8181818 53.1818182,13.1477273 53.1818182,14.7727273 C53.1818182,16.3977273 51.8522727,17.7272727 50.2272727,17.7272727 C48.6022727,17.7272727 47.2727273,16.3977273 47.2727273,14.7727273 C47.2727273,13.1477273 48.6022727,11.8181818 50.2272727,11.8181818 Z M32.5,16.25 C41.4670455,16.25 48.75,23.5329545 48.75,32.5 C48.75,41.4670455 41.4670455,48.75 32.5,48.75 C23.5329545,48.75 16.25,41.4670455 16.25,32.5 C16.25,23.5329545 23.5329545,16.25 32.5,16.25 Z M32.5,19.2045455 C25.1727273,19.2045455 19.2045455,25.1727273 19.2045455,32.5 C19.2045455,39.8272727 25.1727273,45.7954545 32.5,45.7954545 C39.8272727,45.7954545 45.7954545,39.8272727 45.7954545,32.5 C45.7954545,25.1727273 39.8272727,19.2045455 32.5,19.2045455 Z" id="Shape"></path>
                </g>
            </g>
        </g>
    </g>
</svg>