<?xml version="1.0" encoding="UTF-8"?>
<svg width="65px" height="65px" viewBox="0 0 65 65" version="1.1" xmlns="http://www.w3.org/2000/svg" xmlns:xlink="http://www.w3.org/1999/xlink">
    <!-- Generator: Sketch 52.5 (67469) - http://www.bohemiancoding.com/sketch -->
    <title>Shape</title>
    <desc>Created with Sketch.</desc>
    <g id="Page-1" stroke="none" stroke-width="1" fill="none" fill-rule="evenodd">
        <g id="Desktop" transform="translate(-91.000000, -4011.000000)" fill="#FFFAFF" fill-rule="nonzero">
            <g id="Footer" transform="translate(0.000000, 3713.000000)">
                <g id="icons8-linkedin" transform="translate(91.000000, 298.000000)">
                    <path d="M59.0437819,0 L5.95621812,0 C2.70833333,0 0,2.70833333 0,5.95621812 L0,59.0437819 C0,62.2916667 2.70833333,65 5.95621812,65 L59.0437819,65 C62.2916667,65 65,62.2916667 65,59.0437819 L65,5.95621812 C65,2.70833333 62.2916667,0 59.0437819,0 Z M18.9583333,54.1666667 L8.125,54.1666667 L8.125,24.375 L18.9583333,24.375 L18.9583333,54.1666667 Z M13.5416667,20.8520515 C10.2937819,20.8520515 8.125,18.6832696 8.125,15.9749362 C8.125,13.0021152 10.2937819,10.8333333 13.5416667,10.8333333 C16.7895515,10.8333333 18.9583333,13.0021152 18.9583333,15.7104485 C18.9583333,18.6832696 16.7895515,20.8520515 13.5416667,20.8520515 Z M56.875,54.1666667 L46.0416667,54.1666667 L46.0416667,37.9166667 C46.0416667,33.5791029 43.0582696,32.5 42.2542331,32.5 C41.4396152,32.5 37.9166667,33.0395515 37.9166667,37.9166667 C37.9166667,38.4562181 37.9166667,54.1666667 37.9166667,54.1666667 L27.0833333,54.1666667 L27.0833333,24.375 L37.9166667,24.375 L37.9166667,28.7125665 C39.5458998,26.2687181 42.2542331,24.375 47.3958333,24.375 C52.5374362,24.375 56.875,28.4375 56.875,37.9166667 L56.875,54.1666667 Z" id="Shape"></path>
                </g>
            </g>
        </g>
    </g>
</svg>